# xmcd
#
# Track frame offsets: 
#        150
#        23475
#        48600
#        74025
#        100050
#        127200
#        151575
#        178725
#        204975
#        231000
#        253575
#
# Disc length: 3777 seconds
#
# Revision: 4
# Processed by: cddbd v1.5.2PL0 Copyright (c) Steve Scherf et al.
# Submitted via: ExactAudioCopy v1.3
#
DISCID=920ebf0b
DTITLE=Silent Circle - The Original Maxi-Singles Collection
DYEAR=2014
DGENRE=Italo Disco
TTITLE0=Hide Away-Man Is Comin' (12'' Special Mix)
TTITLE1=Touch In The Night (12'' Crash Version)
TTITLE2=Stop The Rain (12'' Version)
TTITLE3=Love Is Just A Word (12'' Reggae Version)
TTITLE4=Moonlight Affair (12'' Version)
TTITLE5=Time For Love (12'' Super Action Mix)
TTITLE6=Danger Danger (12'' Racing Mix)
TTITLE7=Oh, Don't Lose Your Heart Tonight (12'' Version)
TTITLE8=I Am Your Believer (12'' Club Mix)
TTITLE9=Forget The Stranger (12'' Simple Mix)
TTITLE10=What A Shame (12'' Masterbeat Mix)
EXTD=
EXTT0=
EXTT1=
EXTT2=
EXTT3=
EXTT4=
EXTT5=
EXTT6=
EXTT7=
EXTT8=
EXTT9=
EXTT10=
PLAYORDER=
